<svg xmlns="http://www.w3.org/2000/svg" version="1.1" xmlns:xlink="http://www.w3.org/1999/xlink" xmlns:svgjs="http://svgjs.dev/svgjs" width="1440" height="560" preserveAspectRatio="none" viewBox="0 0 1440 560"><g mask="url(&quot;#SvgjsMask12519&quot;)" fill="none"><rect width="1440" height="560" x="0" y="0" fill="url(&quot;#SvgjsRadialGradient12520&quot;)"></rect><use xlink:href="#SvgjsSymbol12527" x="0" y="0"></use><use xlink:href="#SvgjsSymbol12527" x="720" y="0"></use></g><defs><mask id="SvgjsMask12519"><rect width="1440" height="560" fill="#ffffff"></rect></mask><radialGradient cx="50%" cy="50%" r="772.53" gradientUnits="userSpaceOnUse" id="SvgjsRadialGradient12520"><stop stop-color="rgba(14, 42, 71, 1)" offset="0"></stop><stop stop-color="rgba(14, 42, 71, 1)" offset="0"></stop><stop stop-color="rgba(2, 12, 25, 1)" offset="0.84"></stop></radialGradient><path d="M-1 0 a1 1 0 1 0 2 0 a1 1 0 1 0 -2 0z" id="SvgjsPath12523"></path><path d="M-3 0 a3 3 0 1 0 6 0 a3 3 0 1 0 -6 0z" id="SvgjsPath12524"></path><path d="M-5 0 a5 5 0 1 0 10 0 a5 5 0 1 0 -10 0z" id="SvgjsPath12522"></path><path d="M2 -2 L-2 2z" id="SvgjsPath12526"></path><path d="M6 -6 L-6 6z" id="SvgjsPath12521"></path><path d="M30 -30 L-30 30z" id="SvgjsPath12525"></path></defs><symbol id="SvgjsSymbol12527"><use xlink:href="#SvgjsPath12521" x="30" y="30" stroke="#1c538e"></use><use xlink:href="#SvgjsPath12522" x="30" y="90" stroke="#1c538e"></use><use xlink:href="#SvgjsPath12523" x="30" y="150" stroke="#1c538e"></use><use xlink:href="#SvgjsPath12522" x="30" y="210" stroke="#1c538e"></use><use xlink:href="#SvgjsPath12521" x="30" y="270" stroke="#1c538e"></use><use xlink:href="#SvgjsPath12524" x="30" y="330" stroke="#1c538e"></use><use xlink:href="#SvgjsPath12525" x="30" y="390" stroke="#1c538e" stroke-width="3"></use><use xlink:href="#SvgjsPath12526" x="30" y="450" stroke="#1c538e"></use><use xlink:href="#SvgjsPath12526" x="30" y="510" stroke="#1c538e"></use><use xlink:href="#SvgjsPath12526" x="30" y="570" stroke="#1c538e"></use><use xlink:href="#SvgjsPath12522" x="90" y="30" stroke="#1c538e"></use><use xlink:href="#SvgjsPath12521" x="90" y="90" stroke="#1c538e"></use><use xlink:href="#SvgjsPath12522" x="90" y="150" stroke="#1c538e"></use><use xlink:href="#SvgjsPath12522" x="90" y="210" stroke="#1c538e"></use><use xlink:href="#SvgjsPath12521" x="90" y="270" stroke="#1c538e"></use><use xlink:href="#SvgjsPath12522" x="90" y="330" stroke="#1c538e"></use><use xlink:href="#SvgjsPath12525" x="90" y="390" stroke="#1c538e" stroke-width="3"></use><use xlink:href="#SvgjsPath12522" x="90" y="450" stroke="#1c538e"></use><use xlink:href="#SvgjsPath12524" x="90" y="510" stroke="#1c538e"></use><use xlink:href="#SvgjsPath12523" x="90" y="570" stroke="#1c538e"></use><use xlink:href="#SvgjsPath12524" x="150" y="30" stroke="#1c538e"></use><use xlink:href="#SvgjsPath12521" x="150" y="90" stroke="#1c538e"></use><use xlink:href="#SvgjsPath12522" x="150" y="150" stroke="#1c538e"></use><use xlink:href="#SvgjsPath12521" x="150" y="210" stroke="#1c538e"></use><use xlink:href="#SvgjsPath12522" x="150" y="270" stroke="#1c538e"></use><use xlink:href="#SvgjsPath12522" x="150" y="330" stroke="#1c538e"></use><use xlink:href="#SvgjsPath12521" x="150" y="390" stroke="#1c538e"></use><use xlink:href="#SvgjsPath12524" x="150" y="450" stroke="#1c538e"></use><use xlink:href="#SvgjsPath12526" x="150" y="510" stroke="#1c538e"></use><use xlink:href="#SvgjsPath12524" x="150" y="570" stroke="#1c538e"></use><use xlink:href="#SvgjsPath12522" x="210" y="30" stroke="#1c538e"></use><use xlink:href="#SvgjsPath12522" x="210" y="90" stroke="#1c538e"></use><use xlink:href="#SvgjsPath12526" x="210" y="150" stroke="#1c538e"></use><use xlink:href="#SvgjsPath12523" x="210" y="210" stroke="#1c538e"></use><use xlink:href="#SvgjsPath12526" x="210" y="270" stroke="#1c538e"></use><use xlink:href="#SvgjsPath12525" x="210" y="330" stroke="#1c538e" stroke-width="3"></use><use xlink:href="#SvgjsPath12521" x="210" y="390" stroke="#1c538e"></use><use xlink:href="#SvgjsPath12525" x="210" y="450" stroke="#1c538e" stroke-width="3"></use><use xlink:href="#SvgjsPath12521" x="210" y="510" stroke="#1c538e"></use><use xlink:href="#SvgjsPath12526" x="210" y="570" stroke="#1c538e"></use><use xlink:href="#SvgjsPath12522" x="270" y="30" stroke="#1c538e"></use><use xlink:href="#SvgjsPath12523" x="270" y="90" stroke="#1c538e"></use><use xlink:href="#SvgjsPath12522" x="270" y="150" stroke="#1c538e"></use><use xlink:href="#SvgjsPath12522" x="270" y="210" stroke="#1c538e"></use><use xlink:href="#SvgjsPath12521" x="270" y="270" stroke="#1c538e"></use><use xlink:href="#SvgjsPath12525" x="270" y="330" stroke="#1c538e" stroke-width="3"></use><use xlink:href="#SvgjsPath12524" x="270" y="390" stroke="#1c538e"></use><use xlink:href="#SvgjsPath12523" x="270" y="450" stroke="#1c538e"></use><use xlink:href="#SvgjsPath12526" x="270" y="510" stroke="#1c538e"></use><use xlink:href="#SvgjsPath12524" x="270" y="570" stroke="#1c538e"></use><use xlink:href="#SvgjsPath12522" x="330" y="30" stroke="#1c538e"></use><use xlink:href="#SvgjsPath12522" x="330" y="90" stroke="#1c538e"></use><use xlink:href="#SvgjsPath12523" x="330" y="150" stroke="#1c538e"></use><use xlink:href="#SvgjsPath12525" x="330" y="210" stroke="#1c538e" stroke-width="3"></use><use xlink:href="#SvgjsPath12522" x="330" y="270" stroke="#1c538e"></use><use xlink:href="#SvgjsPath12521" x="330" y="330" stroke="#1c538e"></use><use xlink:href="#SvgjsPath12526" x="330" y="390" stroke="#1c538e"></use><use xlink:href="#SvgjsPath12521" x="330" y="450" stroke="#1c538e"></use><use xlink:href="#SvgjsPath12522" x="330" y="510" stroke="#1c538e"></use><use xlink:href="#SvgjsPath12521" x="330" y="570" stroke="#1c538e"></use><use xlink:href="#SvgjsPath12522" x="390" y="30" stroke="#1c538e"></use><use xlink:href="#SvgjsPath12523" x="390" y="90" stroke="#1c538e"></use><use xlink:href="#SvgjsPath12524" x="390" y="150" stroke="#1c538e"></use><use xlink:href="#SvgjsPath12526" x="390" y="210" stroke="#1c538e"></use><use xlink:href="#SvgjsPath12526" x="390" y="270" stroke="#1c538e"></use><use xlink:href="#SvgjsPath12526" x="390" y="330" stroke="#1c538e"></use><use xlink:href="#SvgjsPath12521" x="390" y="390" stroke="#1c538e"></use><use xlink:href="#SvgjsPath12526" x="390" y="450" stroke="#1c538e"></use><use xlink:href="#SvgjsPath12526" x="390" y="510" stroke="#1c538e"></use><use xlink:href="#SvgjsPath12521" x="390" y="570" stroke="#1c538e"></use><use xlink:href="#SvgjsPath12521" x="450" y="30" stroke="#1c538e"></use><use xlink:href="#SvgjsPath12521" x="450" y="90" stroke="#1c538e"></use><use xlink:href="#SvgjsPath12521" x="450" y="150" stroke="#1c538e"></use><use xlink:href="#SvgjsPath12522" x="450" y="210" stroke="#1c538e"></use><use xlink:href="#SvgjsPath12524" x="450" y="270" stroke="#1c538e"></use><use xlink:href="#SvgjsPath12526" x="450" y="330" stroke="#1c538e"></use><use xlink:href="#SvgjsPath12524" x="450" y="390" stroke="#1c538e"></use><use xlink:href="#SvgjsPath12522" x="450" y="450" stroke="#1c538e"></use><use xlink:href="#SvgjsPath12522" x="450" y="510" stroke="#1c538e"></use><use xlink:href="#SvgjsPath12526" x="450" y="570" stroke="#1c538e"></use><use xlink:href="#SvgjsPath12524" x="510" y="30" stroke="#1c538e"></use><use xlink:href="#SvgjsPath12521" x="510" y="90" stroke="#1c538e"></use><use xlink:href="#SvgjsPath12526" x="510" y="150" stroke="#1c538e"></use><use xlink:href="#SvgjsPath12521" x="510" y="210" stroke="#1c538e"></use><use xlink:href="#SvgjsPath12521" x="510" y="270" stroke="#1c538e"></use><use xlink:href="#SvgjsPath12521" x="510" y="330" stroke="#1c538e"></use><use xlink:href="#SvgjsPath12526" x="510" y="390" stroke="#1c538e"></use><use xlink:href="#SvgjsPath12524" x="510" y="450" stroke="#1c538e"></use><use xlink:href="#SvgjsPath12524" x="510" y="510" stroke="#1c538e"></use><use xlink:href="#SvgjsPath12525" x="510" y="570" stroke="#1c538e" stroke-width="3"></use><use xlink:href="#SvgjsPath12526" x="570" y="30" stroke="#1c538e"></use><use xlink:href="#SvgjsPath12522" x="570" y="90" stroke="#1c538e"></use><use xlink:href="#SvgjsPath12522" x="570" y="150" stroke="#1c538e"></use><use xlink:href="#SvgjsPath12523" x="570" y="210" stroke="#1c538e"></use><use xlink:href="#SvgjsPath12521" x="570" y="270" stroke="#1c538e"></use><use xlink:href="#SvgjsPath12522" x="570" y="330" stroke="#1c538e"></use><use xlink:href="#SvgjsPath12524" x="570" y="390" stroke="#1c538e"></use><use xlink:href="#SvgjsPath12521" x="570" y="450" stroke="#1c538e"></use><use xlink:href="#SvgjsPath12526" x="570" y="510" stroke="#1c538e"></use><use xlink:href="#SvgjsPath12522" x="570" y="570" stroke="#1c538e"></use><use xlink:href="#SvgjsPath12521" x="630" y="30" stroke="#1c538e"></use><use xlink:href="#SvgjsPath12522" x="630" y="90" stroke="#1c538e"></use><use xlink:href="#SvgjsPath12525" x="630" y="150" stroke="#1c538e" stroke-width="3"></use><use xlink:href="#SvgjsPath12522" x="630" y="210" stroke="#1c538e"></use><use xlink:href="#SvgjsPath12521" x="630" y="270" stroke="#1c538e"></use><use xlink:href="#SvgjsPath12522" x="630" y="330" stroke="#1c538e"></use><use xlink:href="#SvgjsPath12522" x="630" y="390" stroke="#1c538e"></use><use xlink:href="#SvgjsPath12522" x="630" y="450" stroke="#1c538e"></use><use xlink:href="#SvgjsPath12526" x="630" y="510" stroke="#1c538e"></use><use xlink:href="#SvgjsPath12521" x="630" y="570" stroke="#1c538e"></use><use xlink:href="#SvgjsPath12523" x="690" y="30" stroke="#1c538e"></use><use xlink:href="#SvgjsPath12523" x="690" y="90" stroke="#1c538e"></use><use xlink:href="#SvgjsPath12522" x="690" y="150" stroke="#1c538e"></use><use xlink:href="#SvgjsPath12522" x="690" y="210" stroke="#1c538e"></use><use xlink:href="#SvgjsPath12521" x="690" y="270" stroke="#1c538e"></use><use xlink:href="#SvgjsPath12524" x="690" y="330" stroke="#1c538e"></use><use xlink:href="#SvgjsPath12522" x="690" y="390" stroke="#1c538e"></use><use xlink:href="#SvgjsPath12522" x="690" y="450" stroke="#1c538e"></use><use xlink:href="#SvgjsPath12521" x="690" y="510" stroke="#1c538e"></use><use xlink:href="#SvgjsPath12522" x="690" y="570" stroke="#1c538e"></use></symbol></svg>